<svg width="187" height="40" viewBox="0 0 187 40" fill="none" xmlns="http://www.w3.org/2000/svg">
<mask id="mask0_3472_2759" style="mask-type:alpha" maskUnits="userSpaceOnUse" x="0" y="0" width="187" height="40">
<rect width="186.667" height="40" fill="#D9D9D9"/>
</mask>
<g mask="url(#mask0_3472_2759)">
<path d="M136.523 34.158H131.092L119.635 20.5109V34.158H115.208V5.03809H119.635V18.7765L131.137 5.03809H136.249L124.154 19.4155L136.523 34.158Z" fill="#004A80"/>
<path d="M110.422 19.552C110.422 21.9254 109.981 24.0554 109.098 25.942C108.216 27.7981 107.045 29.3804 105.584 30.6888C104.154 31.9668 102.511 32.9557 100.655 33.6556C98.8289 34.3554 96.9423 34.7054 94.9949 34.7054C93.0475 34.7054 91.1457 34.3554 89.2896 33.6556C87.4639 32.9557 85.8207 31.9668 84.3602 30.6888C82.9301 29.3804 81.7738 27.7981 80.8914 25.942C80.0089 24.0554 79.5677 21.9254 79.5677 19.552C79.5677 17.209 80.0089 15.1095 80.8914 13.2534C81.7738 11.3668 82.9301 9.78451 84.3602 8.50652C85.8207 7.1981 87.4639 6.19397 89.2896 5.49411C91.1457 4.79426 93.0475 4.44434 94.9949 4.44434C96.9423 4.44434 98.8289 4.79426 100.655 5.49411C102.511 6.19397 104.154 7.1981 105.584 8.50652C107.045 9.78451 108.216 11.3668 109.098 13.2534C109.981 15.1095 110.422 17.209 110.422 19.552ZM105.949 19.552C105.949 17.7568 105.63 16.1593 104.991 14.7596C104.352 13.3598 103.5 12.1884 102.435 11.2451C101.4 10.2714 100.229 9.54109 98.9202 9.05424C97.6117 8.53695 96.3033 8.27831 94.9949 8.27831C93.6561 8.27831 92.3324 8.53695 91.024 9.05424C89.7156 9.54109 88.5441 10.2714 87.5095 11.2451C86.475 12.1884 85.6382 13.3598 84.9992 14.7596C84.3602 16.1593 84.0407 17.7568 84.0407 19.552C84.0407 21.3473 84.3602 22.96 84.9992 24.3901C85.6382 25.7898 86.475 26.9765 87.5095 27.9503C88.5441 28.8935 89.7156 29.6238 91.024 30.1411C92.3324 30.628 93.6561 30.8714 94.9949 30.8714C96.3033 30.8714 97.6117 30.628 98.9202 30.1411C100.229 29.6238 101.4 28.8935 102.435 27.9503C103.5 26.9765 104.352 25.7898 104.991 24.3901C105.63 22.96 105.949 21.3473 105.949 19.552Z" fill="#004A80"/>
<path d="M76.5635 34.158H55.933V33.1083L65.1528 16.9052C65.9135 15.5967 66.7199 14.197 67.5719 12.706C68.4543 11.215 69.2454 9.90662 69.9453 8.78077L69.8996 8.73513H56.6633V5.03809H76.0614V6.08787L66.7503 22.3366C65.9896 23.645 65.1832 25.0295 64.3312 26.4901C63.4793 27.9507 62.7033 29.2591 62.0035 30.4154L62.0491 30.461H76.5635V34.158Z" fill="#004A80"/>
<path d="M53.644 34.1577H49.171L46.0217 26.6267H34.7023L31.553 34.1577H27.2169L39.6317 4.62695H41.2292L53.644 34.1577ZM44.5155 23.1122L41.64 15.992C41.427 15.5051 41.214 14.9422 41.001 14.3032C40.788 13.6642 40.5902 13.0404 40.4076 12.4318H40.3164C40.1642 13.0404 39.9664 13.6642 39.723 14.3032C39.51 14.9422 39.297 15.5051 39.084 15.992L36.2085 23.1122H44.5155Z" fill="#004A80"/>
<path d="M25.7595 34.158H20.3281L8.87177 20.5109V34.158H4.44444V5.03809H8.87177V18.7765L20.3737 5.03809H25.4857L13.3904 19.4155L25.7595 34.158Z" fill="#004A80"/>
<path d="M182.222 23.8885C182.222 25.5925 181.918 27.1139 181.309 28.4527C180.731 29.7916 179.91 30.9326 178.845 31.8759C177.78 32.7888 176.517 33.4886 175.056 33.9755C173.626 34.4623 172.059 34.7058 170.355 34.7058C168.651 34.7058 167.069 34.4623 165.608 33.9755C164.178 33.4886 162.931 32.7888 161.866 31.8759C160.801 30.9326 159.964 29.7916 159.355 28.4527C158.777 27.1139 158.488 25.5925 158.488 23.8885V5.03809H162.915V23.432C162.915 25.5925 163.524 27.3573 164.741 28.7266C165.989 30.0959 167.875 30.7805 170.401 30.7805C172.926 30.7805 174.813 30.0959 176.06 28.7266C177.308 27.3573 177.932 25.5925 177.932 23.432V5.03809H182.222V23.8885Z" fill="#004A80"/>
<path d="M131.239 34.158H136.671L148.127 20.5109V34.158H152.554V5.03809H148.127V18.7765L136.625 5.03809H131.513L143.608 19.4155L131.239 34.158Z" fill="#F7941D"/>
</g>
</svg>
